<mxfile host="app.diagrams.net" agent="Mozilla/5.0 (Windows NT 10.0; Win64; x64) AppleWebKit/537.36 (KHTML, like Gecko) Chrome/127.0.0.0 Safari/537.36 OPR/113.0.0.0" version="24.8.3">
  <diagram name="Página-1" id="MiUuDI48baqAd7auRptR">
    <mxGraphModel dx="1639" dy="936" grid="1" gridSize="10" guides="1" tooltips="1" connect="1" arrows="1" fold="1" page="1" pageScale="1" pageWidth="827" pageHeight="1169" math="0" shadow="0">
      <root>
        <mxCell id="0" />
        <mxCell id="1" parent="0" />
        <mxCell id="kPDMbugqhRcBGb7uQuBl-3" value="" style="edgeStyle=orthogonalEdgeStyle;rounded=0;orthogonalLoop=1;jettySize=auto;html=1;fontStyle=1" edge="1" parent="1" source="kPDMbugqhRcBGb7uQuBl-1" target="kPDMbugqhRcBGb7uQuBl-2">
          <mxGeometry relative="1" as="geometry" />
        </mxCell>
        <mxCell id="kPDMbugqhRcBGb7uQuBl-1" value="&lt;h1 style=&quot;font-size: 20px;&quot;&gt;Inicio&lt;/h1&gt;" style="ellipse;whiteSpace=wrap;html=1;fontSize=20;fontStyle=1" vertex="1" parent="1">
          <mxGeometry x="40" y="40" width="120" height="80" as="geometry" />
        </mxCell>
        <mxCell id="kPDMbugqhRcBGb7uQuBl-15" value="" style="edgeStyle=orthogonalEdgeStyle;rounded=0;orthogonalLoop=1;jettySize=auto;html=1;fontStyle=1" edge="1" parent="1" source="kPDMbugqhRcBGb7uQuBl-2" target="kPDMbugqhRcBGb7uQuBl-14">
          <mxGeometry relative="1" as="geometry" />
        </mxCell>
        <mxCell id="kPDMbugqhRcBGb7uQuBl-2" value="Consultar histórico" style="whiteSpace=wrap;html=1;fontSize=12;fontStyle=1;" vertex="1" parent="1">
          <mxGeometry x="200" y="50" width="120" height="60" as="geometry" />
        </mxCell>
        <mxCell id="kPDMbugqhRcBGb7uQuBl-18" value="" style="edgeStyle=orthogonalEdgeStyle;rounded=0;orthogonalLoop=1;jettySize=auto;html=1;" edge="1" parent="1" source="kPDMbugqhRcBGb7uQuBl-4" target="kPDMbugqhRcBGb7uQuBl-17">
          <mxGeometry relative="1" as="geometry" />
        </mxCell>
        <mxCell id="kPDMbugqhRcBGb7uQuBl-4" value="Filtros" style="swimlane;fontStyle=1;childLayout=stackLayout;horizontal=1;startSize=30;horizontalStack=0;resizeParent=1;resizeParentMax=0;resizeLast=0;collapsible=1;marginBottom=0;whiteSpace=wrap;html=1;" vertex="1" parent="1">
          <mxGeometry x="520" y="20" width="140" height="120" as="geometry" />
        </mxCell>
        <mxCell id="kPDMbugqhRcBGb7uQuBl-6" value="Usuário" style="text;strokeColor=none;fillColor=none;align=left;verticalAlign=middle;spacingLeft=4;spacingRight=4;overflow=hidden;points=[[0,0.5],[1,0.5]];portConstraint=eastwest;rotatable=0;whiteSpace=wrap;html=1;fontStyle=1" vertex="1" parent="kPDMbugqhRcBGb7uQuBl-4">
          <mxGeometry y="30" width="140" height="30" as="geometry" />
        </mxCell>
        <mxCell id="kPDMbugqhRcBGb7uQuBl-7" value="Ativo" style="text;strokeColor=none;fillColor=none;align=left;verticalAlign=middle;spacingLeft=4;spacingRight=4;overflow=hidden;points=[[0,0.5],[1,0.5]];portConstraint=eastwest;rotatable=0;whiteSpace=wrap;html=1;fontStyle=1" vertex="1" parent="kPDMbugqhRcBGb7uQuBl-4">
          <mxGeometry y="60" width="140" height="30" as="geometry" />
        </mxCell>
        <mxCell id="kPDMbugqhRcBGb7uQuBl-8" value="Data" style="text;strokeColor=none;fillColor=none;align=left;verticalAlign=middle;spacingLeft=4;spacingRight=4;overflow=hidden;points=[[0,0.5],[1,0.5]];portConstraint=eastwest;rotatable=0;whiteSpace=wrap;html=1;fontStyle=1" vertex="1" parent="kPDMbugqhRcBGb7uQuBl-4">
          <mxGeometry y="90" width="140" height="30" as="geometry" />
        </mxCell>
        <mxCell id="kPDMbugqhRcBGb7uQuBl-16" style="edgeStyle=orthogonalEdgeStyle;rounded=0;orthogonalLoop=1;jettySize=auto;html=1;fontStyle=1" edge="1" parent="1" source="kPDMbugqhRcBGb7uQuBl-14" target="kPDMbugqhRcBGb7uQuBl-4">
          <mxGeometry relative="1" as="geometry" />
        </mxCell>
        <mxCell id="kPDMbugqhRcBGb7uQuBl-14" value="Lista de movimentações" style="whiteSpace=wrap;html=1;fontStyle=1;" vertex="1" parent="1">
          <mxGeometry x="360" y="50" width="120" height="60" as="geometry" />
        </mxCell>
        <mxCell id="kPDMbugqhRcBGb7uQuBl-20" value="" style="edgeStyle=orthogonalEdgeStyle;rounded=0;orthogonalLoop=1;jettySize=auto;html=1;" edge="1" parent="1" source="kPDMbugqhRcBGb7uQuBl-17" target="kPDMbugqhRcBGb7uQuBl-19">
          <mxGeometry relative="1" as="geometry" />
        </mxCell>
        <mxCell id="kPDMbugqhRcBGb7uQuBl-24" value="" style="edgeStyle=orthogonalEdgeStyle;rounded=0;orthogonalLoop=1;jettySize=auto;html=1;" edge="1" parent="1" source="kPDMbugqhRcBGb7uQuBl-17" target="kPDMbugqhRcBGb7uQuBl-23">
          <mxGeometry relative="1" as="geometry" />
        </mxCell>
        <mxCell id="kPDMbugqhRcBGb7uQuBl-17" value="Realiza a pesquisa" style="rhombus;whiteSpace=wrap;html=1;fontStyle=1;startSize=30;" vertex="1" parent="1">
          <mxGeometry x="550" y="180" width="80" height="80" as="geometry" />
        </mxCell>
        <mxCell id="kPDMbugqhRcBGb7uQuBl-19" value="Exibir os dados retornados" style="whiteSpace=wrap;html=1;fontStyle=1;startSize=30;" vertex="1" parent="1">
          <mxGeometry x="670" y="190" width="120" height="60" as="geometry" />
        </mxCell>
        <mxCell id="kPDMbugqhRcBGb7uQuBl-21" value="Sim" style="rounded=0;whiteSpace=wrap;html=1;fillColor=#d5e8d4;strokeColor=#82b366;fontStyle=1" vertex="1" parent="1">
          <mxGeometry x="630" y="190" width="30" height="20" as="geometry" />
        </mxCell>
        <mxCell id="kPDMbugqhRcBGb7uQuBl-22" value="Não" style="rounded=0;whiteSpace=wrap;html=1;fillColor=#f8cecc;strokeColor=#b85450;fontStyle=1" vertex="1" parent="1">
          <mxGeometry x="520" y="190" width="30" height="20" as="geometry" />
        </mxCell>
        <mxCell id="kPDMbugqhRcBGb7uQuBl-23" value="Alerta informando que não tem movimentações" style="whiteSpace=wrap;html=1;fontStyle=1;startSize=30;" vertex="1" parent="1">
          <mxGeometry x="390" y="190" width="120" height="60" as="geometry" />
        </mxCell>
      </root>
    </mxGraphModel>
  </diagram>
</mxfile>
